# MagicaVoxel @ Ephtracy

# group
o 

# material
mtllib Battery.mtl
usemtl palette

# normals
vn -1 0 0
vn 1 0 0
vn 0 0 1
vn 0 0 -1
vn 0 -1 0
vn 0 1 0

# texcoords
vt 0.0214844 0.5
vt 0.900391 0.5
vt 0.958984 0.5

# verts
v -0.5 0 0.1
v -0.5 0 -0.2
v -0.5 0.5 0
v -0.5 0.5 -0.1
v -0.5 0.7 0.1
v -0.5 0.7 0
v -0.5 0.8 0
v -0.5 0.8 -0.1
v -0.5 0.9 0
v -0.5 0.9 -0.2
v -0.5 1 0.1
v -0.5 1 -0.1
v -0.5 1.1 0
v -0.5 1.1 -0.1
v -0.5 1.2 -0.1
v -0.5 1.2 -0.2
v -0.5 1.4 0
v -0.5 1.4 -0.1
v -0.5 1.9 0.1
v -0.5 1.9 -0.2
v -0.4 0 0.3
v -0.4 0 0.1
v -0.4 0 -0.2
v -0.4 0 -0.4
v -0.4 0.7 0.1
v -0.4 0.8 0.2
v -0.4 0.8 0.1
v -0.4 0.9 0.3
v -0.4 0.9 0.2
v -0.4 0.9 -0.2
v -0.4 0.9 -0.4
v -0.4 1 0.3
v -0.4 1 0.1
v -0.4 1 -0.3
v -0.4 1 -0.4
v -0.4 1.1 -0.2
v -0.4 1.1 -0.3
v -0.4 1.2 -0.2
v -0.4 1.9 0.3
v -0.4 1.9 0.1
v -0.4 1.9 -0.2
v -0.4 1.9 -0.4
v -0.3 0 0.4
v -0.3 0 0.3
v -0.3 0 -0.4
v -0.3 0 -0.5
v -0.3 0.9 0.3
v -0.3 0.9 -0.4
v -0.3 1 0.3
v -0.3 1 -0.4
v -0.3 1.9 0.4
v -0.3 1.9 0.3
v -0.3 1.9 -0.4
v -0.3 1.9 -0.5
v -0.2 1.9 0.1
v -0.2 1.9 -0.2
v -0.2 2.1 0.1
v -0.2 2.1 -0.2
v -0.1 0 0.5
v -0.1 0 0.4
v -0.1 0 -0.5
v -0.1 0 -0.6
v -0.1 1.9 0.5
v -0.1 1.9 0.4
v -0.1 1.9 0.2
v -0.1 1.9 0.1
v -0.1 1.9 -0.2
v -0.1 1.9 -0.3
v -0.1 1.9 -0.5
v -0.1 1.9 -0.6
v -0.1 2.1 0.2
v -0.1 2.1 0.1
v -0.1 2.1 -0.2
v -0.1 2.1 -0.3
v 0.2 0 0.5
v 0.2 0 0.4
v 0.2 0 -0.5
v 0.2 0 -0.6
v 0.2 1.9 0.5
v 0.2 1.9 0.4
v 0.2 1.9 0.2
v 0.2 1.9 0.1
v 0.2 1.9 -0.2
v 0.2 1.9 -0.3
v 0.2 1.9 -0.5
v 0.2 1.9 -0.6
v 0.2 2.1 0.2
v 0.2 2.1 0.1
v 0.2 2.1 -0.2
v 0.2 2.1 -0.3
v 0.3 1.9 0.1
v 0.3 1.9 -0.2
v 0.3 2.1 0.1
v 0.3 2.1 -0.2
v 0.4 0 0.4
v 0.4 0 0.3
v 0.4 0 -0.4
v 0.4 0 -0.5
v 0.4 0.9 0.3
v 0.4 0.9 -0.4
v 0.4 1 0.3
v 0.4 1 -0.4
v 0.4 1.9 0.4
v 0.4 1.9 0.3
v 0.4 1.9 -0.4
v 0.4 1.9 -0.5
v 0.5 0 0.3
v 0.5 0 0.1
v 0.5 0 -0.2
v 0.5 0 -0.4
v 0.5 0.7 -0.2
v 0.5 0.8 -0.2
v 0.5 0.8 -0.3
v 0.5 0.9 0.3
v 0.5 0.9 0.1
v 0.5 0.9 -0.3
v 0.5 0.9 -0.4
v 0.5 1 0.3
v 0.5 1 0.2
v 0.5 1 -0.2
v 0.5 1 -0.4
v 0.5 1.1 0.2
v 0.5 1.1 0.1
v 0.5 1.2 0.1
v 0.5 1.9 0.3
v 0.5 1.9 0.1
v 0.5 1.9 -0.2
v 0.5 1.9 -0.4
v 0.6 0 0.1
v 0.6 0 -0.2
v 0.6 0.5 0
v 0.6 0.5 -0.1
v 0.6 0.7 -0.1
v 0.6 0.7 -0.2
v 0.6 0.8 0
v 0.6 0.8 -0.1
v 0.6 0.9 0.1
v 0.6 0.9 -0.1
v 0.6 1 0
v 0.6 1 -0.2
v 0.6 1.1 0
v 0.6 1.1 -0.1
v 0.6 1.2 0.1
v 0.6 1.2 0
v 0.6 1.4 0
v 0.6 1.4 -0.1
v 0.6 1.9 0.1
v 0.6 1.9 -0.2
v -0.1 0 0.5
v -0.1 1.9 0.5
v 0.2 0 0.5
v 0.2 1.9 0.5
v -0.3 0 0.4
v -0.3 1.9 0.4
v -0.1 0 0.4
v -0.1 1.9 0.4
v 0.2 0 0.4
v 0.2 1.9 0.4
v 0.4 0 0.4
v 0.4 1.9 0.4
v -0.4 0 0.3
v -0.4 0.9 0.3
v -0.4 1 0.3
v -0.4 1.9 0.3
v -0.3 0 0.3
v -0.3 0.9 0.3
v -0.3 1 0.3
v -0.3 1.9 0.3
v 0.4 0 0.3
v 0.4 0.9 0.3
v 0.4 1 0.3
v 0.4 1.9 0.3
v 0.5 0 0.3
v 0.5 0.9 0.3
v 0.5 1 0.3
v 0.5 1.9 0.3
v -0.1 1.9 0.2
v -0.1 2.1 0.2
v 0.2 1.9 0.2
v 0.2 2.1 0.2
v -0.5 0 0.1
v -0.5 0.7 0.1
v -0.5 1 0.1
v -0.5 1.9 0.1
v -0.4 0 0.1
v -0.4 0.7 0.1
v -0.4 0.8 0.1
v -0.4 1 0.1
v -0.4 1.9 0.1
v -0.2 1.9 0.1
v -0.2 2.1 0.1
v -0.1 1.9 0.1
v -0.1 2.1 0.1
v 0.2 1.9 0.1
v 0.2 2.1 0.1
v 0.3 1.9 0.1
v 0.3 2.1 0.1
v 0.5 0 0.1
v 0.5 0.9 0.1
v 0.5 1.1 0.1
v 0.5 1.2 0.1
v 0.5 1.9 0.1
v 0.6 0 0.1
v 0.6 0.9 0.1
v 0.6 1.2 0.1
v 0.6 1.9 0.1
v -0.5 0 -0.2
v -0.5 0.9 -0.2
v -0.5 1.2 -0.2
v -0.5 1.9 -0.2
v -0.4 0 -0.2
v -0.4 0.9 -0.2
v -0.4 1.1 -0.2
v -0.4 1.2 -0.2
v -0.4 1.9 -0.2
v -0.2 1.9 -0.2
v -0.2 2.1 -0.2
v -0.1 1.9 -0.2
v -0.1 2.1 -0.2
v 0.2 1.9 -0.2
v 0.2 2.1 -0.2
v 0.3 1.9 -0.2
v 0.3 2.1 -0.2
v 0.5 0 -0.2
v 0.5 0.7 -0.2
v 0.5 0.8 -0.2
v 0.5 1 -0.2
v 0.5 1.9 -0.2
v 0.6 0 -0.2
v 0.6 0.7 -0.2
v 0.6 1 -0.2
v 0.6 1.9 -0.2
v -0.1 1.9 -0.3
v -0.1 2.1 -0.3
v 0.2 1.9 -0.3
v 0.2 2.1 -0.3
v -0.4 0 -0.4
v -0.4 0.9 -0.4
v -0.4 1 -0.4
v -0.4 1.9 -0.4
v -0.3 0 -0.4
v -0.3 0.9 -0.4
v -0.3 1 -0.4
v -0.3 1.9 -0.4
v 0.4 0 -0.4
v 0.4 0.9 -0.4
v 0.4 1 -0.4
v 0.4 1.9 -0.4
v 0.5 0 -0.4
v 0.5 0.9 -0.4
v 0.5 1 -0.4
v 0.5 1.9 -0.4
v -0.3 0 -0.5
v -0.3 1.9 -0.5
v -0.1 0 -0.5
v -0.1 1.9 -0.5
v 0.2 0 -0.5
v 0.2 1.9 -0.5
v 0.4 0 -0.5
v 0.4 1.9 -0.5
v -0.1 0 -0.6
v -0.1 1.9 -0.6
v 0.2 0 -0.6
v 0.2 1.9 -0.6
v -0.1 0 0.5
v 0.2 0 0.5
v -0.3 0 0.4
v -0.1 0 0.4
v 0.2 0 0.4
v 0.4 0 0.4
v -0.4 0 0.3
v -0.3 0 0.3
v 0.4 0 0.3
v 0.5 0 0.3
v -0.5 0 0.1
v -0.4 0 0.1
v 0.5 0 0.1
v 0.6 0 0.1
v -0.5 0 -0.2
v -0.4 0 -0.2
v 0.5 0 -0.2
v 0.6 0 -0.2
v -0.4 0 -0.4
v -0.3 0 -0.4
v 0.4 0 -0.4
v 0.5 0 -0.4
v -0.3 0 -0.5
v -0.1 0 -0.5
v 0.2 0 -0.5
v 0.4 0 -0.5
v -0.1 0 -0.6
v 0.2 0 -0.6
v -0.1 1.9 0.5
v 0.2 1.9 0.5
v -0.3 1.9 0.4
v -0.1 1.9 0.4
v 0.2 1.9 0.4
v 0.4 1.9 0.4
v -0.4 1.9 0.3
v -0.3 1.9 0.3
v 0.4 1.9 0.3
v 0.5 1.9 0.3
v -0.1 1.9 0.2
v 0.2 1.9 0.2
v -0.5 1.9 0.1
v -0.4 1.9 0.1
v -0.2 1.9 0.1
v -0.1 1.9 0.1
v 0.2 1.9 0.1
v 0.3 1.9 0.1
v 0.5 1.9 0.1
v 0.6 1.9 0.1
v -0.5 1.9 -0.2
v -0.4 1.9 -0.2
v -0.2 1.9 -0.2
v -0.1 1.9 -0.2
v 0.2 1.9 -0.2
v 0.3 1.9 -0.2
v 0.5 1.9 -0.2
v 0.6 1.9 -0.2
v -0.1 1.9 -0.3
v 0.2 1.9 -0.3
v -0.4 1.9 -0.4
v -0.3 1.9 -0.4
v 0.4 1.9 -0.4
v 0.5 1.9 -0.4
v -0.3 1.9 -0.5
v -0.1 1.9 -0.5
v 0.2 1.9 -0.5
v 0.4 1.9 -0.5
v -0.1 1.9 -0.6
v 0.2 1.9 -0.6
v -0.1 2.1 0.2
v 0.2 2.1 0.2
v -0.2 2.1 0.1
v -0.1 2.1 0.1
v 0.2 2.1 0.1
v 0.3 2.1 0.1
v -0.2 2.1 -0.2
v -0.1 2.1 -0.2
v 0.2 2.1 -0.2
v 0.3 2.1 -0.2
v -0.1 2.1 -0.3
v 0.2 2.1 -0.3

# faces
f 3/2/1 2/2/1 1/2/1
f 4/2/1 2/2/1 3/2/1
f 5/2/1 3/2/1 1/2/1
f 6/1/1 4/1/1 3/1/1
f 6/2/1 3/2/1 5/2/1
f 7/1/1 6/1/1 5/1/1
f 7/1/1 4/1/1 6/1/1
f 8/2/1 2/2/1 4/2/1
f 8/1/1 4/1/1 7/1/1
f 9/1/1 7/1/1 5/1/1
f 9/2/1 8/2/1 7/2/1
f 10/2/1 2/2/1 8/2/1
f 10/2/1 8/2/1 9/2/1
f 11/1/1 9/1/1 5/1/1
f 11/1/1 10/1/1 9/1/1
f 12/1/1 10/1/1 11/1/1
f 13/2/1 12/2/1 11/2/1
f 14/1/1 10/1/1 12/1/1
f 14/2/1 12/2/1 13/2/1
f 15/1/1 14/1/1 13/1/1
f 15/1/1 10/1/1 14/1/1
f 16/1/1 10/1/1 15/1/1
f 17/2/1 13/2/1 11/2/1
f 17/1/1 15/1/1 13/1/1
f 18/2/1 16/2/1 15/2/1
f 18/1/1 15/1/1 17/1/1
f 19/2/1 17/2/1 11/2/1
f 19/2/1 18/2/1 17/2/1
f 20/2/1 16/2/1 18/2/1
f 20/2/1 18/2/1 19/2/1
f 25/2/1 22/2/1 21/2/1
f 26/2/1 25/2/1 21/2/1
f 27/2/1 25/2/1 26/2/1
f 28/2/1 26/2/1 21/2/1
f 29/1/1 27/1/1 26/1/1
f 29/2/1 26/2/1 28/2/1
f 30/2/1 24/2/1 23/2/1
f 31/2/1 24/2/1 30/2/1
f 32/1/1 29/1/1 28/1/1
f 33/1/1 27/1/1 29/1/1
f 33/1/1 29/1/1 32/1/1
f 34/1/1 31/1/1 30/1/1
f 35/1/1 31/1/1 34/1/1
f 36/1/1 34/1/1 30/1/1
f 37/2/1 35/2/1 34/2/1
f 37/1/1 34/1/1 36/1/1
f 38/2/1 37/2/1 36/2/1
f 39/2/1 33/2/1 32/2/1
f 40/2/1 33/2/1 39/2/1
f 41/2/1 37/2/1 38/2/1
f 42/2/1 35/2/1 37/2/1
f 42/2/1 37/2/1 41/2/1
f 47/2/1 44/2/1 43/2/1
f 48/2/1 46/2/1 45/2/1
f 49/2/1 47/2/1 43/2/1
f 50/2/1 46/2/1 48/2/1
f 51/2/1 49/2/1 43/2/1
f 52/2/1 49/2/1 51/2/1
f 53/2/1 46/2/1 50/2/1
f 54/2/1 46/2/1 53/2/1
f 57/3/1 56/3/1 55/3/1
f 58/3/1 56/3/1 57/3/1
f 63/2/1 60/2/1 59/2/1
f 64/2/1 60/2/1 63/2/1
f 69/2/1 62/2/1 61/2/1
f 70/2/1 62/2/1 69/2/1
f 71/3/1 66/3/1 65/3/1
f 72/3/1 66/3/1 71/3/1
f 73/3/1 68/3/1 67/3/1
f 74/3/1 68/3/1 73/3/1
f 75/2/2 76/2/2 79/2/2
f 79/2/2 76/2/2 80/2/2
f 77/2/2 78/2/2 85/2/2
f 85/2/2 78/2/2 86/2/2
f 81/3/2 82/3/2 87/3/2
f 87/3/2 82/3/2 88/3/2
f 83/3/2 84/3/2 89/3/2
f 89/3/2 84/3/2 90/3/2
f 91/3/2 92/3/2 93/3/2
f 93/3/2 92/3/2 94/3/2
f 95/2/2 96/2/2 99/2/2
f 97/2/2 98/2/2 100/2/2
f 95/2/2 99/2/2 101/2/2
f 100/2/2 98/2/2 102/2/2
f 95/2/2 101/2/2 103/2/2
f 103/2/2 101/2/2 104/2/2
f 102/2/2 98/2/2 105/2/2
f 105/2/2 98/2/2 106/2/2
f 109/2/2 110/2/2 111/2/2
f 111/2/2 110/2/2 112/2/2
f 112/2/2 110/2/2 113/2/2
f 107/2/2 108/2/2 114/2/2
f 114/2/2 108/2/2 115/2/2
f 113/2/2 110/2/2 116/2/2
f 112/1/2 113/1/2 116/1/2
f 116/2/2 110/2/2 117/2/2
f 114/1/2 115/1/2 118/1/2
f 118/1/2 115/1/2 119/1/2
f 112/1/2 116/1/2 120/1/2
f 116/1/2 117/1/2 120/1/2
f 120/1/2 117/1/2 121/1/2
f 119/1/2 115/1/2 122/1/2
f 118/2/2 119/2/2 122/2/2
f 122/1/2 115/1/2 123/1/2
f 122/2/2 123/2/2 124/2/2
f 118/2/2 122/2/2 125/2/2
f 122/2/2 124/2/2 125/2/2
f 125/2/2 124/2/2 126/2/2
f 120/2/2 121/2/2 127/2/2
f 127/2/2 121/2/2 128/2/2
f 129/2/2 130/2/2 131/2/2
f 131/2/2 130/2/2 132/2/2
f 131/1/2 132/1/2 133/1/2
f 132/2/2 130/2/2 133/2/2
f 133/2/2 130/2/2 134/2/2
f 129/2/2 131/2/2 135/2/2
f 131/1/2 133/1/2 135/1/2
f 133/1/2 134/1/2 135/1/2
f 135/1/2 134/1/2 136/1/2
f 129/2/2 135/2/2 137/2/2
f 135/2/2 136/2/2 137/2/2
f 136/1/2 134/1/2 138/1/2
f 137/2/2 136/2/2 138/2/2
f 137/1/2 138/1/2 139/1/2
f 138/1/2 134/1/2 140/1/2
f 139/1/2 138/1/2 140/1/2
f 137/1/2 139/1/2 141/1/2
f 139/2/2 140/2/2 141/2/2
f 141/2/2 140/2/2 142/2/2
f 137/1/2 141/1/2 143/1/2
f 141/1/2 142/1/2 143/1/2
f 143/1/2 142/1/2 144/1/2
f 143/2/2 144/2/2 145/2/2
f 144/1/2 142/1/2 145/1/2
f 142/2/2 140/2/2 146/2/2
f 145/1/2 142/1/2 146/1/2
f 143/2/2 145/2/2 147/2/2
f 145/2/2 146/2/2 147/2/2
f 146/2/2 140/2/2 148/2/2
f 147/2/2 146/2/2 148/2/2
f 151/2/3 150/2/3 149/2/3
f 152/2/3 150/2/3 151/2/3
f 155/2/3 154/2/3 153/2/3
f 156/2/3 154/2/3 155/2/3
f 159/2/3 158/2/3 157/2/3
f 160/2/3 158/2/3 159/2/3
f 165/2/3 162/2/3 161/2/3
f 166/1/3 163/1/3 162/1/3
f 166/2/3 162/2/3 165/2/3
f 167/2/3 164/2/3 163/2/3
f 167/1/3 163/1/3 166/1/3
f 168/2/3 164/2/3 167/2/3
f 173/2/3 170/2/3 169/2/3
f 174/1/3 171/1/3 170/1/3
f 174/2/3 170/2/3 173/2/3
f 175/2/3 172/2/3 171/2/3
f 175/1/3 171/1/3 174/1/3
f 176/2/3 172/2/3 175/2/3
f 179/3/3 178/3/3 177/3/3
f 180/3/3 178/3/3 179/3/3
f 185/2/3 182/2/3 181/2/3
f 186/1/3 183/1/3 182/1/3
f 186/2/3 182/2/3 185/2/3
f 187/1/3 183/1/3 186/1/3
f 188/2/3 184/2/3 183/2/3
f 188/1/3 183/1/3 187/1/3
f 189/2/3 184/2/3 188/2/3
f 192/3/3 191/3/3 190/3/3
f 193/3/3 191/3/3 192/3/3
f 196/3/3 195/3/3 194/3/3
f 197/3/3 195/3/3 196/3/3
f 203/2/3 199/2/3 198/2/3
f 204/1/3 200/1/3 199/1/3
f 204/2/3 199/2/3 203/2/3
f 204/1/3 201/1/3 200/1/3
f 205/2/3 202/2/3 201/2/3
f 205/1/3 201/1/3 204/1/3
f 206/2/3 202/2/3 205/2/3
f 207/2/4 208/2/4 211/2/4
f 208/1/4 209/1/4 212/1/4
f 211/2/4 208/2/4 212/2/4
f 212/1/4 209/1/4 213/1/4
f 209/2/4 210/2/4 214/2/4
f 213/1/4 209/1/4 214/1/4
f 214/2/4 210/2/4 215/2/4
f 216/3/4 217/3/4 218/3/4
f 218/3/4 217/3/4 219/3/4
f 220/3/4 221/3/4 222/3/4
f 222/3/4 221/3/4 223/3/4
f 224/2/4 225/2/4 229/2/4
f 225/1/4 226/1/4 230/1/4
f 229/2/4 225/2/4 230/2/4
f 226/1/4 227/1/4 230/1/4
f 227/2/4 228/2/4 231/2/4
f 230/1/4 227/1/4 231/1/4
f 231/2/4 228/2/4 232/2/4
f 233/3/4 234/3/4 235/3/4
f 235/3/4 234/3/4 236/3/4
f 237/2/4 238/2/4 241/2/4
f 238/1/4 239/1/4 242/1/4
f 241/2/4 238/2/4 242/2/4
f 239/2/4 240/2/4 243/2/4
f 242/1/4 239/1/4 243/1/4
f 243/2/4 240/2/4 244/2/4
f 245/2/4 246/2/4 249/2/4
f 246/1/4 247/1/4 250/1/4
f 249/2/4 246/2/4 250/2/4
f 247/2/4 248/2/4 251/2/4
f 250/1/4 247/1/4 251/1/4
f 251/2/4 248/2/4 252/2/4
f 253/2/4 254/2/4 255/2/4
f 255/2/4 254/2/4 256/2/4
f 257/2/4 258/2/4 259/2/4
f 259/2/4 258/2/4 260/2/4
f 261/2/4 262/2/4 263/2/4
f 263/2/4 262/2/4 264/2/4
f 268/2/5 266/2/5 265/2/5
f 269/2/5 266/2/5 268/2/5
f 272/2/5 268/2/5 267/2/5
f 272/2/5 270/2/5 269/2/5
f 272/2/5 269/2/5 268/2/5
f 273/2/5 270/2/5 272/2/5
f 276/2/5 272/2/5 271/2/5
f 276/2/5 274/2/5 273/2/5
f 276/2/5 273/2/5 272/2/5
f 277/2/5 274/2/5 276/2/5
f 279/2/5 276/2/5 275/2/5
f 279/2/5 278/2/5 277/2/5
f 279/2/5 277/2/5 276/2/5
f 280/2/5 278/2/5 279/2/5
f 281/2/5 278/2/5 280/2/5
f 282/2/5 278/2/5 281/2/5
f 283/2/5 281/2/5 280/2/5
f 284/2/5 281/2/5 283/2/5
f 285/2/5 281/2/5 284/2/5
f 286/2/5 281/2/5 285/2/5
f 287/2/5 285/2/5 284/2/5
f 288/2/5 285/2/5 287/2/5
f 289/2/5 285/2/5 288/2/5
f 290/2/5 285/2/5 289/2/5
f 291/2/5 289/2/5 288/2/5
f 292/2/5 289/2/5 291/2/5
f 293/2/6 294/2/6 296/2/6
f 296/2/6 294/2/6 297/2/6
f 295/2/6 296/2/6 300/2/6
f 297/2/6 298/2/6 300/2/6
f 296/2/6 297/2/6 300/2/6
f 300/2/6 298/2/6 301/2/6
f 299/2/6 300/2/6 303/2/6
f 301/2/6 302/2/6 303/2/6
f 300/2/6 301/2/6 303/2/6
f 303/2/6 302/2/6 304/2/6
f 299/2/6 303/2/6 306/2/6
f 306/2/6 303/2/6 307/2/6
f 307/2/6 303/2/6 308/2/6
f 304/2/6 302/2/6 309/2/6
f 309/2/6 302/2/6 310/2/6
f 310/2/6 302/2/6 311/2/6
f 305/2/6 306/2/6 313/2/6
f 306/2/6 307/2/6 313/2/6
f 313/2/6 307/2/6 314/2/6
f 314/2/6 307/2/6 315/2/6
f 311/2/6 312/2/6 318/2/6
f 310/2/6 311/2/6 318/2/6
f 318/2/6 312/2/6 319/2/6
f 319/2/6 312/2/6 320/2/6
f 315/2/6 316/2/6 321/2/6
f 314/2/6 315/2/6 321/2/6
f 318/2/6 319/2/6 322/2/6
f 317/2/6 318/2/6 322/2/6
f 314/2/6 321/2/6 323/2/6
f 321/2/6 322/2/6 323/2/6
f 323/2/6 322/2/6 324/2/6
f 322/2/6 319/2/6 325/2/6
f 324/2/6 322/2/6 325/2/6
f 325/2/6 319/2/6 326/2/6
f 324/2/6 325/2/6 327/2/6
f 327/2/6 325/2/6 328/2/6
f 328/2/6 325/2/6 329/2/6
f 329/2/6 325/2/6 330/2/6
f 328/2/6 329/2/6 331/2/6
f 331/2/6 329/2/6 332/2/6
f 333/3/6 334/3/6 336/3/6
f 336/3/6 334/3/6 337/3/6
f 335/3/6 336/3/6 339/3/6
f 337/3/6 338/3/6 339/3/6
f 336/3/6 337/3/6 339/3/6
f 339/3/6 338/3/6 340/3/6
f 340/3/6 338/3/6 341/3/6
f 341/3/6 338/3/6 342/3/6
f 340/3/6 341/3/6 343/3/6
f 343/3/6 341/3/6 344/3/6
