# MagicaVoxel @ Ephtracy

# group
o 

# material
mtllib Flamingo.mtl
usemtl palette

# normals
vn -1 0 0
vn 1 0 0
vn 0 0 1
vn 0 0 -1
vn 0 -1 0
vn 0 1 0

# texcoords
vt 0.255859 0.5
vt 0.271484 0.5
vt 0.392578 0.5
vt 0.958984 0.5

# verts
v -1.8 0 0.8
v -1.8 0 0.7
v -1.8 0.1 0.8
v -1.8 0.1 0.7
v -1.8 1.6 1
v -1.8 1.6 0.9
v -1.8 1.7 1.1
v -1.8 1.7 1
v -1.8 1.9 1.1
v -1.8 1.9 1
v -1.8 2 1
v -1.8 2 0.9
v -1.7 0 0.9
v -1.7 0 0.8
v -1.7 0.1 0.9
v -1.7 0.1 0.8
v -1.7 1.5 1.1
v -1.7 1.5 0.9
v -1.7 1.6 1.2
v -1.7 1.6 1.1
v -1.7 1.6 1
v -1.7 1.6 0.9
v -1.7 1.7 1.1
v -1.7 1.7 1
v -1.7 1.8 1.2
v -1.7 1.8 1.1
v -1.7 1.9 1.1
v -1.7 1.9 1
v -1.7 2 1.1
v -1.7 2 1
v -1.7 2 0.9
v -1.7 2.5 1
v -1.7 2.5 0.9
v -1.6 0 1
v -1.6 0 0.9
v -1.6 0 0.8
v -1.6 0 0.6
v -1.6 0.1 0.9
v -1.6 0.1 0.8
v -1.6 0.1 0.6
v -1.6 0.7 0.9
v -1.6 0.7 0.8
v -1.6 0.9 0.9
v -1.6 0.9 0.8
v -1.6 1.5 1.2
v -1.6 1.5 1.1
v -1.6 1.5 1
v -1.6 1.5 0.9
v -1.6 1.5 0.8
v -1.6 1.6 1.2
v -1.6 1.6 1.1
v -1.6 1.8 1.2
v -1.6 1.8 1.1
v -1.6 2 1.2
v -1.6 2 1.1
v -1.6 2 1
v -1.6 2.4 1.1
v -1.6 2.4 1
v -1.6 2.4 0.9
v -1.6 2.4 0.8
v -1.6 2.5 1
v -1.6 2.5 0.9
v -1.6 2.6 1
v -1.6 2.6 0.9
v -1.5 1.2 1.3
v -1.5 1.2 1.2
v -1.5 1.3 1.2
v -1.5 1.3 1.1
v -1.5 1.4 1.3
v -1.5 1.4 1.2
v -1.5 1.5 1.2
v -1.5 1.5 1.1
v -1.5 2 1.2
v -1.5 2 1.1
v -1.5 2.1 1.2
v -1.5 2.1 1.1
v -1.5 2.4 1.1
v -1.5 2.4 1
v -1.5 2.4 0.9
v -1.5 2.4 0.8
v -1.5 2.5 1.1
v -1.5 2.5 1
v -1.5 2.5 0.9
v -1.5 2.5 0.8
v -1.5 2.6 1
v -1.5 2.6 0.9
v -1.5 3.8 0.9
v -1.5 3.8 0.8
v -1.5 3.8 0.7
v -1.5 3.9 1
v -1.5 3.9 0.9
v -1.5 3.9 0.8
v -1.5 3.9 0.7
v -1.4 0 1
v -1.4 0 0.6
v -1.4 0.1 0.9
v -1.4 0.1 0.6
v -1.4 0.7 0.9
v -1.4 0.7 0.8
v -1.4 0.9 0.9
v -1.4 0.9 0.8
v -1.4 1.5 1
v -1.4 1.5 0.9
v -1.2 0 0.8
v -1.2 0 0.7
v -1.2 0.1 0.8
v -1.2 0.1 0.7
v -1.7 0 0.8
v -1.7 0 0.7
v -1.7 0.1 0.8
v -1.7 0.1 0.7
v -1.5 0 1
v -1.5 0 0.6
v -1.5 0.1 0.9
v -1.5 0.1 0.6
v -1.5 0.7 0.9
v -1.5 0.7 0.8
v -1.5 0.9 0.9
v -1.5 0.9 0.8
v -1.5 1.5 1
v -1.5 1.5 0.9
v -1.4 1.2 1.3
v -1.4 1.2 1.2
v -1.4 1.3 1.2
v -1.4 1.3 1.1
v -1.4 1.4 1.3
v -1.4 1.4 1.2
v -1.4 1.5 1.2
v -1.4 1.5 1.1
v -1.4 2 1.2
v -1.4 2 1.1
v -1.4 2.1 1.2
v -1.4 2.1 1.1
v -1.4 2.4 1.1
v -1.4 2.4 1
v -1.4 2.4 0.9
v -1.4 2.4 0.8
v -1.4 2.5 1.1
v -1.4 2.5 1
v -1.4 2.5 0.9
v -1.4 2.5 0.8
v -1.4 2.6 1
v -1.4 2.6 0.9
v -1.4 3.8 0.9
v -1.4 3.8 0.8
v -1.4 3.8 0.7
v -1.4 3.9 1
v -1.4 3.9 0.9
v -1.4 3.9 0.8
v -1.4 3.9 0.7
v -1.3 0 1
v -1.3 0 0.9
v -1.3 0 0.8
v -1.3 0 0.6
v -1.3 0.1 0.9
v -1.3 0.1 0.8
v -1.3 0.1 0.6
v -1.3 0.7 0.9
v -1.3 0.7 0.8
v -1.3 0.9 0.9
v -1.3 0.9 0.8
v -1.3 1.5 1.2
v -1.3 1.5 1.1
v -1.3 1.5 1
v -1.3 1.5 0.9
v -1.3 1.5 0.8
v -1.3 1.6 1.2
v -1.3 1.6 1.1
v -1.3 1.8 1.2
v -1.3 1.8 1.1
v -1.3 2 1.2
v -1.3 2 1.1
v -1.3 2 1
v -1.3 2.4 1.1
v -1.3 2.4 1
v -1.3 2.4 0.9
v -1.3 2.4 0.8
v -1.3 2.5 1
v -1.3 2.5 0.9
v -1.3 2.6 1
v -1.3 2.6 0.9
v -1.2 0 0.9
v -1.2 0 0.8
v -1.2 0.1 0.9
v -1.2 0.1 0.8
v -1.2 1.5 1.1
v -1.2 1.5 0.9
v -1.2 1.6 1.2
v -1.2 1.6 1.1
v -1.2 1.6 1
v -1.2 1.6 0.9
v -1.2 1.7 1.1
v -1.2 1.7 1
v -1.2 1.8 1.2
v -1.2 1.8 1.1
v -1.2 1.9 1.1
v -1.2 1.9 1
v -1.2 2 1.1
v -1.2 2 1
v -1.2 2 0.9
v -1.2 2.5 1
v -1.2 2.5 0.9
v -1.1 0 0.8
v -1.1 0 0.7
v -1.1 0.1 0.8
v -1.1 0.1 0.7
v -1.1 1.6 1
v -1.1 1.6 0.9
v -1.1 1.7 1.1
v -1.1 1.7 1
v -1.1 1.9 1.1
v -1.1 1.9 1
v -1.1 2 1
v -1.1 2 0.9
v -1.5 1.2 1.3
v -1.5 1.4 1.3
v -1.4 1.2 1.3
v -1.4 1.4 1.3
v -1.7 1.6 1.2
v -1.7 1.8 1.2
v -1.6 1.5 1.2
v -1.6 1.6 1.2
v -1.6 1.8 1.2
v -1.6 2 1.2
v -1.5 1.4 1.2
v -1.5 1.5 1.2
v -1.5 2 1.2
v -1.5 2.1 1.2
v -1.4 1.4 1.2
v -1.4 1.5 1.2
v -1.4 2 1.2
v -1.4 2.1 1.2
v -1.3 1.5 1.2
v -1.3 1.6 1.2
v -1.3 1.8 1.2
v -1.3 2 1.2
v -1.2 1.6 1.2
v -1.2 1.8 1.2
v -1.8 1.7 1.1
v -1.8 1.9 1.1
v -1.7 1.5 1.1
v -1.7 1.6 1.1
v -1.7 1.7 1.1
v -1.7 1.8 1.1
v -1.7 1.9 1.1
v -1.7 2 1.1
v -1.6 1.5 1.1
v -1.6 1.6 1.1
v -1.6 1.8 1.1
v -1.6 2 1.1
v -1.6 2.4 1.1
v -1.5 2 1.1
v -1.5 2.1 1.1
v -1.5 2.4 1.1
v -1.5 2.5 1.1
v -1.4 2 1.1
v -1.4 2.1 1.1
v -1.4 2.4 1.1
v -1.4 2.5 1.1
v -1.3 1.5 1.1
v -1.3 1.6 1.1
v -1.3 1.8 1.1
v -1.3 2 1.1
v -1.3 2.4 1.1
v -1.2 1.5 1.1
v -1.2 1.6 1.1
v -1.2 1.7 1.1
v -1.2 1.8 1.1
v -1.2 1.9 1.1
v -1.2 2 1.1
v -1.1 1.7 1.1
v -1.1 1.9 1.1
v -1.8 1.6 1
v -1.8 1.7 1
v -1.8 1.9 1
v -1.8 2 1
v -1.7 1.6 1
v -1.7 1.7 1
v -1.7 1.9 1
v -1.7 2 1
v -1.7 2.5 1
v -1.6 0 1
v -1.6 1.5 1
v -1.6 2 1
v -1.6 2.4 1
v -1.6 2.5 1
v -1.6 2.6 1
v -1.5 0 1
v -1.5 1.5 1
v -1.5 2.4 1
v -1.5 2.5 1
v -1.5 2.6 1
v -1.5 3.9 1
v -1.4 0 1
v -1.4 1.5 1
v -1.4 2.4 1
v -1.4 2.5 1
v -1.4 2.6 1
v -1.4 3.9 1
v -1.3 0 1
v -1.3 1.5 1
v -1.3 2 1
v -1.3 2.4 1
v -1.3 2.5 1
v -1.3 2.6 1
v -1.2 1.6 1
v -1.2 1.7 1
v -1.2 1.9 1
v -1.2 2 1
v -1.2 2.5 1
v -1.1 1.6 1
v -1.1 1.7 1
v -1.1 1.9 1
v -1.1 2 1
v -1.7 0 0.9
v -1.7 0.1 0.9
v -1.6 0 0.9
v -1.6 0.1 0.9
v -1.3 0 0.9
v -1.3 0.1 0.9
v -1.2 0 0.9
v -1.2 0.1 0.9
v -1.8 0 0.8
v -1.8 0.1 0.8
v -1.7 0 0.8
v -1.7 0.1 0.8
v -1.2 0 0.8
v -1.2 0.1 0.8
v -1.1 0 0.8
v -1.1 0.1 0.8
v -1.5 1.2 1.2
v -1.5 1.3 1.2
v -1.4 1.2 1.2
v -1.4 1.3 1.2
v -1.5 1.3 1.1
v -1.5 1.5 1.1
v -1.4 1.3 1.1
v -1.4 1.5 1.1
v -1.8 1.6 0.9
v -1.8 2 0.9
v -1.7 1.5 0.9
v -1.7 1.6 0.9
v -1.7 2 0.9
v -1.7 2.5 0.9
v -1.6 0.1 0.9
v -1.6 0.7 0.9
v -1.6 0.9 0.9
v -1.6 1.5 0.9
v -1.6 2.4 0.9
v -1.6 2.5 0.9
v -1.6 2.6 0.9
v -1.5 0.1 0.9
v -1.5 0.7 0.9
v -1.5 0.9 0.9
v -1.5 1.5 0.9
v -1.5 2.4 0.9
v -1.5 2.5 0.9
v -1.5 2.6 0.9
v -1.5 3.8 0.9
v -1.4 0.1 0.9
v -1.4 0.7 0.9
v -1.4 0.9 0.9
v -1.4 1.5 0.9
v -1.4 2.4 0.9
v -1.4 2.5 0.9
v -1.4 2.6 0.9
v -1.4 3.8 0.9
v -1.3 0.1 0.9
v -1.3 0.7 0.9
v -1.3 0.9 0.9
v -1.3 1.5 0.9
v -1.3 2.4 0.9
v -1.3 2.5 0.9
v -1.3 2.6 0.9
v -1.2 1.5 0.9
v -1.2 1.6 0.9
v -1.2 2 0.9
v -1.2 2.5 0.9
v -1.1 1.6 0.9
v -1.1 2 0.9
v -1.7 0 0.8
v -1.7 0.1 0.8
v -1.6 0 0.8
v -1.6 0.1 0.8
v -1.6 0.7 0.8
v -1.6 0.9 0.8
v -1.6 1.5 0.8
v -1.6 2.4 0.8
v -1.5 0.7 0.8
v -1.5 0.9 0.8
v -1.5 2.4 0.8
v -1.5 2.5 0.8
v -1.4 0.7 0.8
v -1.4 0.9 0.8
v -1.4 2.4 0.8
v -1.4 2.5 0.8
v -1.3 0 0.8
v -1.3 0.1 0.8
v -1.3 0.7 0.8
v -1.3 0.9 0.8
v -1.3 1.5 0.8
v -1.3 2.4 0.8
v -1.2 0 0.8
v -1.2 0.1 0.8
v -1.8 0 0.7
v -1.8 0.1 0.7
v -1.7 0 0.7
v -1.7 0.1 0.7
v -1.5 3.8 0.7
v -1.5 3.9 0.7
v -1.4 3.8 0.7
v -1.4 3.9 0.7
v -1.2 0 0.7
v -1.2 0.1 0.7
v -1.1 0 0.7
v -1.1 0.1 0.7
v -1.6 0 0.6
v -1.6 0.1 0.6
v -1.5 0 0.6
v -1.5 0.1 0.6
v -1.4 0 0.6
v -1.4 0.1 0.6
v -1.3 0 0.6
v -1.3 0.1 0.6
v -1.6 0 1
v -1.5 0 1
v -1.4 0 1
v -1.3 0 1
v -1.7 0 0.9
v -1.6 0 0.9
v -1.3 0 0.9
v -1.2 0 0.9
v -1.8 0 0.8
v -1.7 0 0.8
v -1.6 0 0.8
v -1.3 0 0.8
v -1.2 0 0.8
v -1.1 0 0.8
v -1.8 0 0.7
v -1.7 0 0.7
v -1.2 0 0.7
v -1.1 0 0.7
v -1.6 0 0.6
v -1.5 0 0.6
v -1.4 0 0.6
v -1.3 0 0.6
v -1.6 0.7 0.9
v -1.5 0.7 0.9
v -1.4 0.7 0.9
v -1.3 0.7 0.9
v -1.6 0.7 0.8
v -1.5 0.7 0.8
v -1.4 0.7 0.8
v -1.3 0.7 0.8
v -1.5 1.2 1.3
v -1.4 1.2 1.3
v -1.5 1.2 1.2
v -1.4 1.2 1.2
v -1.5 1.3 1.2
v -1.4 1.3 1.2
v -1.5 1.3 1.1
v -1.4 1.3 1.1
v -1.6 1.5 1.2
v -1.5 1.5 1.2
v -1.4 1.5 1.2
v -1.3 1.5 1.2
v -1.7 1.5 1.1
v -1.6 1.5 1.1
v -1.5 1.5 1.1
v -1.4 1.5 1.1
v -1.3 1.5 1.1
v -1.2 1.5 1.1
v -1.6 1.5 1
v -1.5 1.5 1
v -1.4 1.5 1
v -1.3 1.5 1
v -1.7 1.5 0.9
v -1.6 1.5 0.9
v -1.5 1.5 0.9
v -1.4 1.5 0.9
v -1.3 1.5 0.9
v -1.2 1.5 0.9
v -1.6 1.5 0.8
v -1.3 1.5 0.8
v -1.7 1.6 1.2
v -1.6 1.6 1.2
v -1.3 1.6 1.2
v -1.2 1.6 1.2
v -1.7 1.6 1.1
v -1.6 1.6 1.1
v -1.3 1.6 1.1
v -1.2 1.6 1.1
v -1.8 1.6 1
v -1.7 1.6 1
v -1.2 1.6 1
v -1.1 1.6 1
v -1.8 1.6 0.9
v -1.7 1.6 0.9
v -1.2 1.6 0.9
v -1.1 1.6 0.9
v -1.8 1.7 1.1
v -1.7 1.7 1.1
v -1.2 1.7 1.1
v -1.1 1.7 1.1
v -1.8 1.7 1
v -1.7 1.7 1
v -1.2 1.7 1
v -1.1 1.7 1
v -1.5 3.8 0.9
v -1.4 3.8 0.9
v -1.5 3.8 0.8
v -1.4 3.8 0.8
v -1.5 3.8 0.7
v -1.4 3.8 0.7
v -1.7 0.1 0.9
v -1.6 0.1 0.9
v -1.5 0.1 0.9
v -1.4 0.1 0.9
v -1.3 0.1 0.9
v -1.2 0.1 0.9
v -1.8 0.1 0.8
v -1.7 0.1 0.8
v -1.6 0.1 0.8
v -1.3 0.1 0.8
v -1.2 0.1 0.8
v -1.1 0.1 0.8
v -1.8 0.1 0.7
v -1.7 0.1 0.7
v -1.2 0.1 0.7
v -1.1 0.1 0.7
v -1.6 0.1 0.6
v -1.5 0.1 0.6
v -1.4 0.1 0.6
v -1.3 0.1 0.6
v -1.6 0.9 0.9
v -1.5 0.9 0.9
v -1.4 0.9 0.9
v -1.3 0.9 0.9
v -1.6 0.9 0.8
v -1.5 0.9 0.8
v -1.4 0.9 0.8
v -1.3 0.9 0.8
v -1.5 1.4 1.3
v -1.4 1.4 1.3
v -1.5 1.4 1.2
v -1.4 1.4 1.2
v -1.7 1.8 1.2
v -1.6 1.8 1.2
v -1.3 1.8 1.2
v -1.2 1.8 1.2
v -1.7 1.8 1.1
v -1.6 1.8 1.1
v -1.3 1.8 1.1
v -1.2 1.8 1.1
v -1.8 1.9 1.1
v -1.7 1.9 1.1
v -1.2 1.9 1.1
v -1.1 1.9 1.1
v -1.8 1.9 1
v -1.7 1.9 1
v -1.2 1.9 1
v -1.1 1.9 1
v -1.6 2 1.2
v -1.5 2 1.2
v -1.4 2 1.2
v -1.3 2 1.2
v -1.7 2 1.1
v -1.6 2 1.1
v -1.5 2 1.1
v -1.4 2 1.1
v -1.3 2 1.1
v -1.2 2 1.1
v -1.8 2 1
v -1.7 2 1
v -1.6 2 1
v -1.3 2 1
v -1.2 2 1
v -1.1 2 1
v -1.8 2 0.9
v -1.7 2 0.9
v -1.2 2 0.9
v -1.1 2 0.9
v -1.5 2.1 1.2
v -1.4 2.1 1.2
v -1.5 2.1 1.1
v -1.4 2.1 1.1
v -1.6 2.4 1.1
v -1.5 2.4 1.1
v -1.4 2.4 1.1
v -1.3 2.4 1.1
v -1.6 2.4 1
v -1.5 2.4 1
v -1.4 2.4 1
v -1.3 2.4 1
v -1.6 2.4 0.9
v -1.5 2.4 0.9
v -1.4 2.4 0.9
v -1.3 2.4 0.9
v -1.6 2.4 0.8
v -1.5 2.4 0.8
v -1.4 2.4 0.8
v -1.3 2.4 0.8
v -1.5 2.5 1.1
v -1.4 2.5 1.1
v -1.7 2.5 1
v -1.6 2.5 1
v -1.5 2.5 1
v -1.4 2.5 1
v -1.3 2.5 1
v -1.2 2.5 1
v -1.7 2.5 0.9
v -1.6 2.5 0.9
v -1.5 2.5 0.9
v -1.4 2.5 0.9
v -1.3 2.5 0.9
v -1.2 2.5 0.9
v -1.5 2.5 0.8
v -1.4 2.5 0.8
v -1.6 2.6 1
v -1.5 2.6 1
v -1.4 2.6 1
v -1.3 2.6 1
v -1.6 2.6 0.9
v -1.5 2.6 0.9
v -1.4 2.6 0.9
v -1.3 2.6 0.9
v -1.5 3.9 1
v -1.4 3.9 1
v -1.5 3.9 0.9
v -1.4 3.9 0.9
v -1.5 3.9 0.8
v -1.4 3.9 0.8
v -1.5 3.9 0.7
v -1.4 3.9 0.7

# faces
f 3/3/1 2/3/1 1/3/1
f 4/3/1 2/3/1 3/3/1
f 8/2/1 6/2/1 5/2/1
f 9/2/1 8/2/1 7/2/1
f 10/2/1 6/2/1 8/2/1
f 10/2/1 8/2/1 9/2/1
f 11/2/1 6/2/1 10/2/1
f 12/2/1 6/2/1 11/2/1
f 15/3/1 14/3/1 13/3/1
f 16/3/1 14/3/1 15/3/1
f 20/2/1 18/2/1 17/2/1
f 21/2/1 18/2/1 20/2/1
f 22/2/1 18/2/1 21/2/1
f 23/2/1 20/2/1 19/2/1
f 23/2/1 21/2/1 20/2/1
f 24/2/1 21/2/1 23/2/1
f 25/2/1 23/2/1 19/2/1
f 26/2/1 23/2/1 25/2/1
f 29/2/1 28/2/1 27/2/1
f 30/2/1 28/2/1 29/2/1
f 32/2/1 31/2/1 30/2/1
f 33/2/1 31/2/1 32/2/1
f 38/3/1 35/3/1 34/3/1
f 39/3/1 37/3/1 36/3/1
f 40/3/1 37/3/1 39/3/1
f 41/3/1 38/3/1 34/3/1
f 43/3/1 41/3/1 34/3/1
f 43/3/1 42/3/1 41/3/1
f 44/3/1 42/3/1 43/3/1
f 47/3/1 43/3/1 34/3/1
f 48/3/1 43/3/1 47/3/1
f 50/2/1 46/2/1 45/2/1
f 51/2/1 46/2/1 50/2/1
f 54/2/1 53/2/1 52/2/1
f 55/2/1 53/2/1 54/2/1
f 57/2/1 56/2/1 55/2/1
f 58/2/1 56/2/1 57/2/1
f 59/2/1 49/2/1 48/2/1
f 60/2/1 49/2/1 59/2/1
f 63/2/1 62/2/1 61/2/1
f 64/2/1 62/2/1 63/2/1
f 67/2/1 66/2/1 65/2/1
f 69/2/1 67/2/1 65/2/1
f 69/2/1 68/2/1 67/2/1
f 70/2/1 68/2/1 69/2/1
f 71/2/1 68/2/1 70/2/1
f 72/2/1 68/2/1 71/2/1
f 75/2/1 74/2/1 73/2/1
f 76/2/1 74/2/1 75/2/1
f 81/2/1 78/2/1 77/2/1
f 82/2/1 78/2/1 81/2/1
f 83/2/1 80/2/1 79/2/1
f 84/2/1 80/2/1 83/2/1
f 87/2/1 86/2/1 85/2/1
f 90/2/1 87/2/1 85/2/1
f 91/4/1 88/4/1 87/4/1
f 91/2/1 87/2/1 90/2/1
f 92/1/1 89/1/1 88/1/1
f 92/4/1 88/4/1 91/4/1
f 93/1/1 89/1/1 92/1/1
f 96/3/1 95/3/1 94/3/1
f 97/3/1 95/3/1 96/3/1
f 98/3/1 96/3/1 94/3/1
f 100/3/1 98/3/1 94/3/1
f 100/3/1 99/3/1 98/3/1
f 101/3/1 99/3/1 100/3/1
f 102/3/1 100/3/1 94/3/1
f 103/3/1 100/3/1 102/3/1
f 106/3/1 105/3/1 104/3/1
f 107/3/1 105/3/1 106/3/1
f 108/3/2 109/3/2 110/3/2
f 110/3/2 109/3/2 111/3/2
f 112/3/2 113/3/2 114/3/2
f 114/3/2 113/3/2 115/3/2
f 112/3/2 114/3/2 116/3/2
f 112/3/2 116/3/2 118/3/2
f 116/3/2 117/3/2 118/3/2
f 118/3/2 117/3/2 119/3/2
f 112/3/2 118/3/2 120/3/2
f 120/3/2 118/3/2 121/3/2
f 122/2/2 123/2/2 124/2/2
f 122/2/2 124/2/2 126/2/2
f 124/2/2 125/2/2 126/2/2
f 126/2/2 125/2/2 127/2/2
f 127/2/2 125/2/2 128/2/2
f 128/2/2 125/2/2 129/2/2
f 130/2/2 131/2/2 132/2/2
f 132/2/2 131/2/2 133/2/2
f 134/2/2 135/2/2 138/2/2
f 138/2/2 135/2/2 139/2/2
f 136/2/2 137/2/2 140/2/2
f 140/2/2 137/2/2 141/2/2
f 142/2/2 143/2/2 144/2/2
f 142/2/2 144/2/2 147/2/2
f 144/4/2 145/4/2 148/4/2
f 147/2/2 144/2/2 148/2/2
f 145/1/2 146/1/2 149/1/2
f 148/4/2 145/4/2 149/4/2
f 149/1/2 146/1/2 150/1/2
f 151/3/2 152/3/2 155/3/2
f 153/3/2 154/3/2 156/3/2
f 156/3/2 154/3/2 157/3/2
f 151/3/2 155/3/2 158/3/2
f 151/3/2 158/3/2 160/3/2
f 158/3/2 159/3/2 160/3/2
f 160/3/2 159/3/2 161/3/2
f 151/3/2 160/3/2 164/3/2
f 164/3/2 160/3/2 165/3/2
f 162/2/2 163/2/2 167/2/2
f 167/2/2 163/2/2 168/2/2
f 169/2/2 170/2/2 171/2/2
f 171/2/2 170/2/2 172/2/2
f 172/2/2 173/2/2 174/2/2
f 174/2/2 173/2/2 175/2/2
f 165/2/2 166/2/2 176/2/2
f 176/2/2 166/2/2 177/2/2
f 178/2/2 179/2/2 180/2/2
f 180/2/2 179/2/2 181/2/2
f 182/3/2 183/3/2 184/3/2
f 184/3/2 183/3/2 185/3/2
f 186/2/2 187/2/2 189/2/2
f 189/2/2 187/2/2 190/2/2
f 190/2/2 187/2/2 191/2/2
f 188/2/2 189/2/2 192/2/2
f 189/2/2 190/2/2 192/2/2
f 192/2/2 190/2/2 193/2/2
f 188/2/2 192/2/2 194/2/2
f 194/2/2 192/2/2 195/2/2
f 196/2/2 197/2/2 198/2/2
f 198/2/2 197/2/2 199/2/2
f 199/2/2 200/2/2 201/2/2
f 201/2/2 200/2/2 202/2/2
f 203/3/2 204/3/2 205/3/2
f 205/3/2 204/3/2 206/3/2
f 207/2/2 208/2/2 210/2/2
f 209/2/2 210/2/2 211/2/2
f 210/2/2 208/2/2 212/2/2
f 211/2/2 210/2/2 212/2/2
f 212/2/2 208/2/2 213/2/2
f 213/2/2 208/2/2 214/2/2
f 217/2/3 216/2/3 215/2/3
f 218/2/3 216/2/3 217/2/3
f 222/2/3 220/2/3 219/2/3
f 223/2/3 220/2/3 222/2/3
f 226/2/3 222/2/3 221/2/3
f 226/2/3 224/2/3 223/2/3
f 226/2/3 223/2/3 222/2/3
f 227/2/3 224/2/3 226/2/3
f 229/2/3 226/2/3 225/2/3
f 229/2/3 228/2/3 227/2/3
f 229/2/3 227/2/3 226/2/3
f 230/2/3 228/2/3 229/2/3
f 231/2/3 228/2/3 230/2/3
f 232/2/3 228/2/3 231/2/3
f 233/2/3 231/2/3 230/2/3
f 234/2/3 231/2/3 233/2/3
f 235/2/3 231/2/3 234/2/3
f 236/2/3 231/2/3 235/2/3
f 237/2/3 235/2/3 234/2/3
f 238/2/3 235/2/3 237/2/3
f 243/2/3 240/2/3 239/2/3
f 244/2/3 240/2/3 243/2/3
f 245/2/3 240/2/3 244/2/3
f 247/2/3 242/2/3 241/2/3
f 248/2/3 242/2/3 247/2/3
f 249/2/3 246/2/3 245/2/3
f 249/2/3 245/2/3 244/2/3
f 250/2/3 246/2/3 249/2/3
f 252/2/3 251/2/3 250/2/3
f 253/2/3 251/2/3 252/2/3
f 254/2/3 251/2/3 253/2/3
f 257/2/3 255/2/3 254/2/3
f 257/2/3 254/2/3 253/2/3
f 258/2/3 255/2/3 257/2/3
f 259/2/3 255/2/3 258/2/3
f 263/2/3 257/2/3 256/2/3
f 263/2/3 258/2/3 257/2/3
f 264/2/3 258/2/3 263/2/3
f 265/2/3 261/2/3 260/2/3
f 266/2/3 261/2/3 265/2/3
f 268/2/3 263/2/3 262/2/3
f 269/2/3 263/2/3 268/2/3
f 270/2/3 263/2/3 269/2/3
f 271/2/3 268/2/3 267/2/3
f 271/2/3 269/2/3 268/2/3
f 272/2/3 269/2/3 271/2/3
f 277/2/3 274/2/3 273/2/3
f 278/2/3 274/2/3 277/2/3
f 279/2/3 276/2/3 275/2/3
f 280/2/3 276/2/3 279/2/3
f 284/2/3 281/2/3 280/2/3
f 285/2/3 281/2/3 284/2/3
f 286/2/3 281/2/3 285/2/3
f 288/3/3 283/3/3 282/3/3
f 289/3/3 283/3/3 288/3/3
f 290/2/3 287/2/3 286/2/3
f 290/2/3 286/2/3 285/2/3
f 291/2/3 287/2/3 290/2/3
f 292/2/3 287/2/3 291/2/3
f 297/2/3 293/2/3 292/2/3
f 297/2/3 292/2/3 291/2/3
f 298/2/3 293/2/3 297/2/3
f 299/2/3 293/2/3 298/2/3
f 300/3/3 295/3/3 294/3/3
f 301/3/3 295/3/3 300/3/3
f 303/2/3 297/2/3 296/2/3
f 303/2/3 298/2/3 297/2/3
f 304/2/3 298/2/3 303/2/3
f 305/2/3 298/2/3 304/2/3
f 309/2/3 303/2/3 302/2/3
f 309/2/3 304/2/3 303/2/3
f 310/2/3 304/2/3 309/2/3
f 311/2/3 307/2/3 306/2/3
f 312/2/3 307/2/3 311/2/3
f 313/2/3 309/2/3 308/2/3
f 314/2/3 309/2/3 313/2/3
f 317/3/3 316/3/3 315/3/3
f 318/3/3 316/3/3 317/3/3
f 321/3/3 320/3/3 319/3/3
f 322/3/3 320/3/3 321/3/3
f 325/3/3 324/3/3 323/3/3
f 326/3/3 324/3/3 325/3/3
f 329/3/3 328/3/3 327/3/3
f 330/3/3 328/3/3 329/3/3
f 331/2/4 332/2/4 333/2/4
f 333/2/4 332/2/4 334/2/4
f 335/2/4 336/2/4 337/2/4
f 337/2/4 336/2/4 338/2/4
f 339/2/4 340/2/4 342/2/4
f 342/2/4 340/2/4 343/2/4
f 341/2/4 342/2/4 348/2/4
f 342/2/4 343/2/4 348/2/4
f 343/2/4 344/2/4 348/2/4
f 348/2/4 344/2/4 349/2/4
f 349/2/4 344/2/4 350/2/4
f 345/3/4 346/3/4 352/3/4
f 352/3/4 346/3/4 353/3/4
f 347/3/4 348/3/4 354/3/4
f 354/3/4 348/3/4 355/3/4
f 350/2/4 351/2/4 356/2/4
f 349/2/4 350/2/4 356/2/4
f 356/2/4 351/2/4 357/2/4
f 357/2/4 351/2/4 358/2/4
f 358/2/4 359/2/4 365/2/4
f 357/2/4 358/2/4 365/2/4
f 365/2/4 359/2/4 366/2/4
f 366/2/4 359/2/4 367/2/4
f 360/3/4 361/3/4 368/3/4
f 368/3/4 361/3/4 369/3/4
f 362/3/4 363/3/4 370/3/4
f 370/3/4 363/3/4 371/3/4
f 364/2/4 365/2/4 372/2/4
f 365/2/4 366/2/4 372/2/4
f 372/2/4 366/2/4 373/2/4
f 373/2/4 366/2/4 374/2/4
f 372/2/4 373/2/4 375/2/4
f 371/2/4 372/2/4 375/2/4
f 375/2/4 373/2/4 376/2/4
f 376/2/4 373/2/4 377/2/4
f 377/2/4 373/2/4 378/2/4
f 376/2/4 377/2/4 379/2/4
f 379/2/4 377/2/4 380/2/4
f 381/3/4 382/3/4 383/3/4
f 383/3/4 382/3/4 384/3/4
f 385/3/4 386/3/4 389/3/4
f 389/3/4 386/3/4 390/3/4
f 387/2/4 388/2/4 391/2/4
f 391/2/4 392/2/4 395/2/4
f 387/2/4 391/2/4 395/2/4
f 395/2/4 392/2/4 396/2/4
f 393/3/4 394/3/4 399/3/4
f 399/3/4 394/3/4 400/3/4
f 387/2/4 395/2/4 401/2/4
f 401/2/4 395/2/4 402/2/4
f 397/3/4 398/3/4 403/3/4
f 403/3/4 398/3/4 404/3/4
f 405/3/4 406/3/4 407/3/4
f 407/3/4 406/3/4 408/3/4
f 409/1/4 410/1/4 411/1/4
f 411/1/4 410/1/4 412/1/4
f 413/3/4 414/3/4 415/3/4
f 415/3/4 414/3/4 416/3/4
f 417/3/4 418/3/4 419/3/4
f 419/3/4 418/3/4 420/3/4
f 421/3/4 422/3/4 423/3/4
f 423/3/4 422/3/4 424/3/4
f 430/3/5 426/3/5 425/3/5
f 431/3/5 428/3/5 427/3/5
f 434/3/5 430/3/5 429/3/5
f 435/3/5 426/3/5 430/3/5
f 435/3/5 430/3/5 434/3/5
f 436/3/5 432/3/5 431/3/5
f 436/3/5 431/3/5 427/3/5
f 437/3/5 432/3/5 436/3/5
f 439/3/5 434/3/5 433/3/5
f 440/3/5 434/3/5 439/3/5
f 441/3/5 438/3/5 437/3/5
f 442/3/5 438/3/5 441/3/5
f 443/3/5 426/3/5 435/3/5
f 444/3/5 426/3/5 443/3/5
f 445/3/5 436/3/5 427/3/5
f 446/3/5 436/3/5 445/3/5
f 451/3/5 448/3/5 447/3/5
f 452/3/5 448/3/5 451/3/5
f 453/3/5 450/3/5 449/3/5
f 454/3/5 450/3/5 453/3/5
f 457/2/5 456/2/5 455/2/5
f 458/2/5 456/2/5 457/2/5
f 461/2/5 460/2/5 459/2/5
f 462/2/5 460/2/5 461/2/5
f 468/2/5 464/2/5 463/2/5
f 469/2/5 464/2/5 468/2/5
f 470/2/5 466/2/5 465/2/5
f 471/2/5 466/2/5 470/2/5
f 473/2/5 469/2/5 468/2/5
f 473/2/5 472/2/5 471/2/5
f 473/2/5 471/2/5 470/2/5
f 473/2/5 470/2/5 469/2/5
f 473/2/5 468/2/5 467/2/5
f 474/2/5 472/2/5 473/2/5
f 475/2/5 472/2/5 474/2/5
f 476/2/5 472/2/5 475/2/5
f 477/2/5 473/2/5 467/2/5
f 478/2/5 473/2/5 477/2/5
f 479/2/5 475/2/5 474/2/5
f 480/2/5 475/2/5 479/2/5
f 481/2/5 472/2/5 476/2/5
f 482/2/5 472/2/5 481/2/5
f 483/2/5 480/2/5 479/2/5
f 483/2/5 481/2/5 480/2/5
f 483/2/5 479/2/5 478/2/5
f 484/2/5 481/2/5 483/2/5
f 489/2/5 486/2/5 485/2/5
f 490/2/5 486/2/5 489/2/5
f 491/2/5 488/2/5 487/2/5
f 492/2/5 488/2/5 491/2/5
f 497/2/5 494/2/5 493/2/5
f 498/2/5 494/2/5 497/2/5
f 499/2/5 496/2/5 495/2/5
f 500/2/5 496/2/5 499/2/5
f 505/2/5 502/2/5 501/2/5
f 506/2/5 502/2/5 505/2/5
f 507/2/5 504/2/5 503/2/5
f 508/2/5 504/2/5 507/2/5
f 511/4/5 510/4/5 509/4/5
f 512/4/5 510/4/5 511/4/5
f 513/1/5 512/1/5 511/1/5
f 514/1/5 512/1/5 513/1/5
f 515/3/6 516/3/6 522/3/6
f 516/3/6 517/3/6 522/3/6
f 522/3/6 517/3/6 523/3/6
f 519/3/6 520/3/6 524/3/6
f 518/3/6 519/3/6 524/3/6
f 524/3/6 520/3/6 525/3/6
f 521/3/6 522/3/6 527/3/6
f 527/3/6 522/3/6 528/3/6
f 525/3/6 526/3/6 529/3/6
f 529/3/6 526/3/6 530/3/6
f 523/3/6 517/3/6 531/3/6
f 531/3/6 517/3/6 532/3/6
f 518/3/6 524/3/6 533/3/6
f 533/3/6 524/3/6 534/3/6
f 535/3/6 536/3/6 539/3/6
f 539/3/6 536/3/6 540/3/6
f 537/3/6 538/3/6 541/3/6
f 541/3/6 538/3/6 542/3/6
f 543/2/6 544/2/6 545/2/6
f 545/2/6 544/2/6 546/2/6
f 547/2/6 548/2/6 551/2/6
f 551/2/6 548/2/6 552/2/6
f 549/2/6 550/2/6 553/2/6
f 553/2/6 550/2/6 554/2/6
f 555/2/6 556/2/6 559/2/6
f 559/2/6 556/2/6 560/2/6
f 557/2/6 558/2/6 561/2/6
f 561/2/6 558/2/6 562/2/6
f 563/2/6 564/2/6 568/2/6
f 568/2/6 564/2/6 569/2/6
f 565/2/6 566/2/6 570/2/6
f 570/2/6 566/2/6 571/2/6
f 567/2/6 568/2/6 574/2/6
f 574/2/6 568/2/6 575/2/6
f 571/2/6 572/2/6 576/2/6
f 576/2/6 572/2/6 577/2/6
f 573/2/6 574/2/6 579/2/6
f 579/2/6 574/2/6 580/2/6
f 577/2/6 578/2/6 581/2/6
f 581/2/6 578/2/6 582/2/6
f 583/2/6 584/2/6 585/2/6
f 585/2/6 584/2/6 586/2/6
f 587/2/6 588/2/6 591/2/6
f 591/2/6 588/2/6 592/2/6
f 589/2/6 590/2/6 593/2/6
f 593/2/6 590/2/6 594/2/6
f 595/2/6 596/2/6 599/2/6
f 599/2/6 596/2/6 600/2/6
f 597/2/6 598/2/6 601/2/6
f 601/2/6 598/2/6 602/2/6
f 603/2/6 604/2/6 607/2/6
f 607/2/6 604/2/6 608/2/6
f 605/2/6 606/2/6 611/2/6
f 611/2/6 606/2/6 612/2/6
f 609/2/6 610/2/6 615/2/6
f 615/2/6 610/2/6 616/2/6
f 613/2/6 614/2/6 617/2/6
f 617/2/6 614/2/6 618/2/6
f 619/2/6 620/2/6 623/2/6
f 623/2/6 620/2/6 624/2/6
f 621/2/6 622/2/6 625/2/6
f 625/2/6 622/2/6 626/2/6
f 627/2/6 628/2/6 629/2/6
f 629/2/6 628/2/6 630/2/6
f 629/4/6 630/4/6 631/4/6
f 631/4/6 630/4/6 632/4/6
f 631/1/6 632/1/6 633/1/6
f 633/1/6 632/1/6 634/1/6
